HIERARCHY
ROOT Hips
{
	OFFSET 0.000000 0.000000 0.000000
	CHANNELS 6 Xposition Yposition Zposition Zrotation Yrotation Xrotation 
	JOINT LowerBack
	{
		OFFSET 0.000000 0.000000 0.000000
		CHANNELS 3 Zrotation Yrotation Xrotation
		JOINT Spine
		{
			OFFSET 0.028270 2.035590 -0.193380
			CHANNELS 3 Zrotation Yrotation Xrotation
			JOINT Spine1
			{
				OFFSET 0.056720 2.048850 -0.042750
				CHANNELS 3 Zrotation Yrotation Xrotation
				JOINT Neck
				{
					OFFSET 0.000000 0.000000 0.000000
					CHANNELS 3 Zrotation Yrotation Xrotation
					JOINT Neck1
					{
						OFFSET -0.054170 1.746240 0.172020
						CHANNELS 3 Zrotation Yrotation Xrotation
						JOINT Head
						{
							OFFSET 0.104070 1.761360 -0.123970
							CHANNELS 3 Zrotation Yrotation Xrotation
							End Site
							{
								OFFSET 0.000000 0.000000 0.000000
							}
						}
					}
				}
				JOINT LeftShoulder
				{
					OFFSET 0.000000 0.000000 0.000000
					CHANNELS 3 Zrotation Yrotation Xrotation
					JOINT LeftArm
					{
						OFFSET 3.362410 1.200890 -0.311210
						CHANNELS 3 Zrotation Yrotation Xrotation
						JOINT LeftForeArm
						{
							OFFSET 4.983000 -0.000000 -0.000000
							CHANNELS 3 Zrotation Yrotation Xrotation
							JOINT LeftHand
							{
								OFFSET 3.483560 -0.000000 -0.000000
								CHANNELS 3 Zrotation Yrotation Xrotation
								JOINT LeftFingerBase
								{
									OFFSET 0.000000 0.000000 0.000000
									CHANNELS 3 Zrotation Yrotation Xrotation
									JOINT LeftHandIndex1
									{
										OFFSET 0.715260 -0.000000 -0.000000
										CHANNELS 3 Zrotation Yrotation Xrotation
										End Site
										{
											OFFSET 0.000000 0.000000 0.000000
										}
									}
								}
								JOINT LThumb
								{
									OFFSET 0.000000 0.000000 0.000000
									CHANNELS 3 Zrotation Yrotation Xrotation
									End Site
									{
										OFFSET 0.000000 0.000000 0.000000
									}
								}
							}
						}
					}
				}
				JOINT RightShoulder
				{
					OFFSET 0.000000 0.000000 0.000000
					CHANNELS 3 Zrotation Yrotation Xrotation
					JOINT RightArm
					{
						OFFSET -3.136600 1.374050 -0.404650
						CHANNELS 3 Zrotation Yrotation Xrotation
						JOINT RightForeArm
						{
							OFFSET -5.241900 -0.000000 -0.000000
							CHANNELS 3 Zrotation Yrotation Xrotation
							JOINT RightHand
							{
								OFFSET -3.444170 -0.000000 -0.000000
								CHANNELS 3 Zrotation Yrotation Xrotation
								JOINT RightFingerBase
								{
									OFFSET 0.000000 0.000000 0.000000
									CHANNELS 3 Zrotation Yrotation Xrotation
									JOINT RightHandIndex1
									{
										OFFSET -0.622530 -0.000000 -0.000000
										CHANNELS 3 Zrotation Yrotation Xrotation
										End Site
										{
											OFFSET 0.000000 0.000000 0.000000
										}
									}
								}
								JOINT RThumb
								{
									OFFSET 0.000000 0.000000 0.000000
									CHANNELS 3 Zrotation Yrotation Xrotation
									End Site
									{
										OFFSET 0.000000 0.000000 0.000000
									}
								}
							}
						}
					}
				}
			}
		}
	}
}
}
MOTION
Frames: 17
Frame Time: 0.008333
25.759886 15.905249 4.285175 -112.473614 -88.872947 136.401156 5.856604 -3.445072 -5.858198 0.543271 -4.210912 -4.184418 -7.544650 -4.373975 0.286317 9.183067 -5.785076 -6.932902 -4.015593 -0.307893 0.157426 0.000000 0.000000 0.000000 -4.807299 -1.458678 2.835574 -53.153689 -25.766585 19.295827 -2.520188 -49.476331 -0.027218 7.160529 -0.714257 -0.061128 -0.188052 0.267053 -0.000000 0.000000 0.000000 0.000000 0.000000 0.000000 0.000000 16.707217 -5.382224 2.849876 60.509831 -8.159994 -20.425824 3.866604 2.022163 0.001143 -6.241077 3.730585 -0.212265 0.142757 -0.075744 -0.000000 0.000000 0.000000 0.000000 0.000000 0.000000 0.000000 
25.525065 15.909997 4.253654 -108.463838 -88.703433 132.506436 6.249458 -3.419979 -6.056461 0.623030 -4.230175 -4.232593 -7.529972 -4.394646 0.257842 9.094562 -5.595800 -6.948970 -4.032085 -0.309160 0.154062 0.000000 0.000000 0.000000 -4.958052 -1.371055 2.843772 -53.221045 -25.131744 19.240108 -2.513021 -49.536342 -0.027796 7.373631 -0.751339 -0.065328 -0.188736 0.264886 -0.000000 0.000000 0.000000 0.000000 0.000000 0.000000 0.000000 16.630312 -5.179768 2.862664 60.334285 -7.706535 -20.289967 3.840305 1.782879 0.000256 -6.855482 3.716285 -0.231969 0.144322 -0.076900 -0.000000 0.000000 0.000000 0.000000 0.000000 0.000000 0.000000 
25.288077 15.920757 4.221713 -105.995131 -88.487984 130.139009 6.671119 -3.383237 -6.233462 0.708230 -4.240515 -4.277864 -7.518490 -4.406555 0.225122 9.009312 -5.367110 -6.960490 -4.051736 -0.310660 0.151277 0.000000 0.000000 0.000000 -5.154013 -1.248661 2.857438 -53.337422 -24.443275 19.179823 -2.513144 -49.471816 -0.028351 7.606117 -0.774699 -0.068735 -0.189240 0.261538 -0.000000 0.000000 0.000000 0.000000 0.000000 0.000000 0.000000 16.561893 -4.931955 2.871793 60.215778 -7.204958 -20.103010 3.812592 1.609563 -0.000607 -7.464501 3.723659 -0.252874 0.145674 -0.078084 -0.000000 0.000000 0.000000 0.000000 0.000000 0.000000 0.000000 
25.049333 15.937535 4.188099 -104.932031 -88.263238 129.164970 7.074144 -3.339412 -6.391158 0.788816 -4.242601 -4.320627 -7.510810 -4.410475 0.186572 8.939239 -5.112340 -6.962930 -4.075725 -0.312548 0.150511 0.000000 0.000000 0.000000 -5.360500 -1.127258 2.871545 -53.516510 -23.666610 19.091451 -2.517201 -49.285527 -0.028856 7.858837 -0.788791 -0.071752 -0.189214 0.256955 -0.000000 0.000000 0.000000 0.000000 0.000000 0.000000 0.000000 16.522467 -4.657997 2.876699 60.159024 -6.655459 -19.828542 3.784110 1.508408 -0.001411 -8.048898 3.750140 -0.274375 0.146750 -0.079164 -0.000000 0.000000 0.000000 0.000000 0.000000 0.000000 0.000000 
24.810102 15.960498 4.153223 -104.720834 -88.027419 129.019634 7.462780 -3.287135 -6.520683 0.864855 -4.234632 -4.358784 -7.507313 -4.404359 0.144866 8.881652 -4.828540 -6.954784 -4.103898 -0.314803 0.152134 0.000000 0.000000 0.000000 -5.590023 -0.991064 2.887212 -53.745966 -22.845745 18.997082 -2.526429 -48.953460 -0.029327 8.140965 -0.794618 -0.074278 -0.188782 0.251136 0.000000 0.000000 0.000000 0.000000 0.000000 0.000000 0.000000 16.510267 -4.354322 2.875241 60.167197 -6.058107 -19.511801 3.755837 1.465219 -0.002082 -8.581239 3.815203 -0.297374 0.147485 -0.080263 -0.000000 0.000000 0.000000 0.000000 0.000000 0.000000 0.000000 
24.570853 15.989508 4.116839 -105.165160 -87.788572 129.508822 7.822593 -3.226066 -6.622983 0.932945 -4.214892 -4.392043 -7.508035 -4.386426 0.101549 8.838522 -4.520840 -6.933999 -4.136256 -0.317446 0.156806 0.000000 0.000000 0.000000 -5.832431 -0.844748 2.902605 -54.026764 -21.991821 18.898565 -2.539958 -48.464446 -0.029739 8.453731 -0.793972 -0.076616 -0.187813 0.244087 0.000000 0.000000 0.000000 0.000000 0.000000 0.000000 0.000000 16.529783 -4.027407 2.866370 60.242034 -5.408864 -19.176887 3.728019 1.466866 -0.002577 -9.040875 3.929484 -0.322371 0.147829 -0.081449 -0.000000 0.000000 0.000000 0.000000 0.000000 0.000000 0.000000 
24.332655 16.024350 4.078199 -106.294507 -87.566948 130.665960 8.119122 -3.157101 -6.704667 0.985660 -4.181535 -4.421332 -7.513224 -4.354879 0.055852 8.818526 -4.206019 -6.898949 -4.173354 -0.320568 0.165219 0.000000 0.000000 0.000000 -6.054255 -0.716438 2.913395 -54.373972 -21.084540 18.776581 -2.554816 -47.819859 -0.030035 8.790699 -0.791504 -0.078865 -0.185946 0.235860 0.000000 0.000000 0.000000 0.000000 0.000000 0.000000 0.000000 16.596097 -3.695353 2.850623 60.386005 -4.717521 -18.731724 3.702165 1.549528 -0.002931 -9.422833 4.055070 -0.346364 0.147856 -0.082425 -0.000000 0.000000 0.000000 0.000000 0.000000 0.000000 0.000000 
24.096185 16.064715 4.038215 -107.823076 -87.345109 132.207440 8.373932 -3.076956 -6.766057 1.027617 -4.132923 -4.445757 -7.520847 -4.307906 0.012791 8.810370 -3.876167 -6.850580 -4.213114 -0.323979 0.177064 0.000000 0.000000 0.000000 -6.273874 -0.574315 2.921611 -54.774497 -20.181707 18.661027 -2.572920 -46.998743 -0.030204 9.151710 -0.785199 -0.080926 -0.183336 0.226567 0.000000 0.000000 0.000000 0.000000 0.000000 0.000000 0.000000 16.689159 -3.347712 2.826550 60.599888 -3.963203 -18.334832 3.676685 1.642457 -0.003053 -9.699844 4.246668 -0.373055 0.147434 -0.083694 -0.000000 0.000000 0.000000 0.000000 0.000000 0.000000 0.000000 
23.861954 16.110101 3.996490 -109.849299 -87.134815 134.236137 8.563596 -2.986211 -6.814186 1.054291 -4.067844 -4.466239 -7.529290 -4.244359 -0.027765 8.816807 -3.545653 -6.789375 -4.254663 -0.327639 0.192405 0.000000 0.000000 0.000000 -6.463596 -0.438334 2.924130 -55.241719 -19.268404 18.533981 -2.591624 -46.008352 -0.030186 9.523566 -0.777906 -0.082798 -0.179684 0.216361 0.000000 0.000000 0.000000 0.000000 0.000000 0.000000 0.000000 16.810949 -2.998500 2.795766 60.885160 -3.141898 -17.950980 3.651734 1.751832 -0.002979 -9.869473 4.483556 -0.400443 0.146603 -0.085171 -0.000000 0.000000 0.000000 0.000000 0.000000 0.000000 0.000000 
23.630492 16.159979 3.953816 -112.246296 -86.922784 136.632599 8.697722 -2.881181 -6.850688 1.067460 -3.983372 -4.483075 -7.538080 -4.161239 -0.065481 8.836194 -3.225594 -6.718704 -4.297591 -0.331500 0.210346 0.000000 0.000000 0.000000 -6.614251 -0.308919 2.920400 -55.785670 -18.356262 18.389594 -2.610357 -44.849650 -0.029942 9.891845 -0.770696 -0.084482 -0.174912 0.205469 0.000000 0.000000 0.000000 0.000000 0.000000 0.000000 0.000000 16.959761 -2.653122 2.759631 61.239382 -2.290610 -17.367817 3.630834 1.993868 -0.002877 -9.952694 4.657565 -0.419229 0.145682 -0.086204 -0.000000 0.000000 0.000000 0.000000 0.000000 0.000000 0.000000 
23.402708 16.213780 3.910319 -115.120110 -86.707066 139.494915 8.773626 -2.764350 -6.871180 1.067754 -3.881064 -4.495091 -7.542715 -4.060244 -0.099499 8.855002 -2.884216 -6.634066 -4.338552 -0.335306 0.231967 0.000000 0.000000 0.000000 -6.738313 -0.161204 2.915173 -56.382115 -17.477436 18.250585 -2.630255 -43.530416 -0.029469 10.241046 -0.751372 -0.084674 -0.169222 0.194084 0.000000 0.000000 0.000000 0.000000 0.000000 0.000000 0.000000 17.104381 -2.279423 2.718852 61.669423 -1.345948 -17.076704 3.606489 2.133639 -0.002485 -9.888967 4.962054 -0.443412 0.144018 -0.088364 -0.000000 0.000000 0.000000 0.000000 0.000000 0.000000 0.000000 
23.177442 16.270790 3.867736 -117.938547 -86.458941 142.315261 8.833124 -2.628921 -6.894658 1.063927 -3.758874 -4.505459 -7.540847 -3.938843 -0.125093 8.869926 -2.596987 -6.553994 -4.375638 -0.338846 0.252663 0.000000 0.000000 0.000000 -6.818956 -0.022607 2.898769 -57.075130 -16.598875 18.073509 -2.646504 -42.066758 -0.028730 10.559191 -0.741928 -0.085375 -0.162287 0.182520 0.000000 0.000000 0.000000 0.000000 0.000000 0.000000 0.000000 17.239866 -1.948478 2.676029 62.154691 -0.339411 -16.446957 3.587769 2.434047 -0.002218 -9.775429 5.130519 -0.453094 0.142664 -0.089812 -0.000000 0.000000 0.000000 0.000000 0.000000 0.000000 0.000000 
22.955887 16.330684 3.825667 -121.025238 -86.185836 145.396758 8.852747 -2.479796 -6.899768 1.051111 -3.617900 -4.510979 -7.533207 -3.798499 -0.147689 8.878835 -2.301989 -6.467335 -4.409294 -0.342165 0.274977 0.000000 0.000000 0.000000 -6.871054 0.136661 2.882219 -57.818719 -15.756718 17.889210 -2.662825 -40.478919 -0.027757 10.821000 -0.715784 -0.083979 -0.154593 0.170948 0.000000 0.000000 0.000000 0.000000 0.000000 0.000000 0.000000 17.360385 -1.594171 2.631576 62.702813 0.726097 -15.888753 3.568615 2.750603 -0.001865 -9.550108 5.312352 -0.458274 0.140898 -0.091778 0.000000 0.000000 0.000000 0.000000 0.000000 0.000000 0.000000 
22.737466 16.393039 3.784932 -124.112131 -85.877311 148.476100 8.851919 -2.317163 -6.891494 1.033708 -3.460122 -4.512682 -7.518240 -3.641052 -0.166001 8.876715 -2.019347 -6.380844 -4.438098 -0.345119 0.297192 0.000000 0.000000 0.000000 -6.899926 0.312401 2.864173 -58.612309 -14.938805 17.687150 -2.677797 -38.794251 -0.026565 11.011887 -0.674924 -0.080387 -0.146228 0.159586 0.000000 0.000000 0.000000 0.000000 0.000000 0.000000 0.000000 17.455837 -1.235396 2.586722 63.301507 1.856495 -15.306578 3.550422 3.114034 -0.001500 -9.237517 5.466677 -0.456154 0.138906 -0.094032 0.000000 0.000000 0.000000 0.000000 0.000000 0.000000 0.000000 
22.521539 16.457522 3.745823 -127.061300 -85.534325 151.415035 8.837116 -2.144032 -6.869191 1.013167 -3.288922 -4.510788 -7.496600 -3.469888 -0.180680 8.863268 -1.750704 -6.296826 -4.462136 -0.347693 0.318672 0.000000 0.000000 0.000000 -6.914405 0.506041 2.846506 -59.439832 -14.139152 17.467373 -2.691678 -37.043890 -0.025189 11.115519 -0.613681 -0.074091 -0.137420 0.148600 0.000000 0.000000 0.000000 0.000000 0.000000 0.000000 0.000000 17.525939 -0.873065 2.541710 63.939793 3.043502 -14.677146 3.533433 3.538816 -0.001131 -8.848249 5.586438 -0.446630 0.136692 -0.096531 0.000000 0.000000 0.000000 0.000000 0.000000 0.000000 0.000000 
22.307862 16.523826 3.708462 -129.750885 -85.164638 154.089654 8.812725 -1.964773 -6.833435 0.990542 -3.109025 -4.505759 -7.469615 -3.289760 -0.192634 8.840284 -1.497501 -6.216917 -4.481886 -0.349911 0.338996 0.000000 0.000000 0.000000 -6.923267 0.716783 2.831068 -60.282881 -13.348839 17.232523 -2.704963 -35.261066 -0.023666 11.118551 -0.525730 -0.064391 -0.128418 0.138118 0.000000 0.000000 0.000000 0.000000 0.000000 0.000000 0.000000 17.574052 -0.509104 2.496260 64.606591 4.276318 -13.982717 3.517775 4.037688 -0.000758 -8.392027 5.671474 -0.430305 0.134233 -0.099238 0.000000 0.000000 0.000000 0.000000 0.000000 0.000000 0.000000 
22.095471 16.591570 3.672699 -132.096142 -84.782200 156.415802 8.780358 -1.784671 -6.786581 0.966352 -2.926043 -4.498292 -7.439129 -3.106331 -0.202613 8.811038 -1.261717 -6.142278 -4.498088 -0.351825 0.357904 0.000000 0.000000 0.000000 -6.933027 0.942158 2.819490 -61.123116 -12.556734 16.986581 -2.718428 -33.479490 -0.022037 11.010331 -0.405382 -0.051183 -0.119471 0.128228 0.000000 0.000000 0.000000 0.000000 0.000000 0.000000 0.000000 17.606268 -0.147177 2.449562 65.290980 5.540487 -13.201515 3.503473 4.625238 -0.000362 -7.878776 5.727531 -0.408278 0.131505 -0.102109 0.000000 0.000000 0.000000 0.000000 0.000000 0.000000 0.000000 
